<svg xmlns="http://www.w3.org/2000/svg" viewBox="0 0 1305.07 209.4"><defs><style>.cls-1{fill:#1c1c1c;}.cls-2{fill:#f5864f;}.cls-3{fill:#2da7a7;}</style></defs><g id="レイヤー_2" data-name="レイヤー 2"><g id="_イヤー_1" data-name=" イヤー 1"><path class="cls-1" d="M353.17,200.9h2.1v-8.1h2v-6.1h2v-6.1h2.4v6.1h2v6.1h2v8.1h2v6.4h-2.4v-6.1h-9.7v6.1h-2.4Zm10.1-2v-5.7h-2v-6.1h-1.7v6.1h-2v5.7Z"/><path class="cls-1" d="M383.37,191.2h-4.1v-2.4h4.1v-6.1h2v-2h6.4v2.4h-6.1v5.7h6.1v2.4h-6.1v16.2h-2.4l.1-16.2Z"/><path class="cls-1" d="M408.47,191.2h-4.1v-2.4h4.1v-6.1h2v-2h6.4v2.4h-6.1v5.7h6.1v2.4h-6.1v16.2h-2.4l.1-16.2Z"/><path class="cls-1" d="M430.57,203.3h-2.1V192.9h2.1v-2h2v-2H439v2h2v2h2v6.4h-12.1V203h2v2h5.7v-2h2v-2H443v2.4h-2v2h-2v2.1h-6.4v-2.1h-2v-2.1Zm10.1-6.4v-3.7h-2v-2H433v2h-2v3.7Z"/><path class="cls-1" d="M455.77,203.3h-2.1V192.9h2.1v-2h2v-2h6.4v2h2v2h2v2.4h-2.4v-2h-2v-2h-5.7v2h-2v9.8h2v2h5.7v-2h2v-2h2.4v2.4h-2v2h-2v2.1h-6.4v-2.1h-2Z"/><path class="cls-1" d="M483.87,191.2h-4.1v-2.4h4.1v-6.1h2.4v6.1h6.1v2.4h-6.1V205h6.1v2.4H486v-2.1h-2l-.1-14.1Z"/><path class="cls-1" d="M510,182.7h2.4v4.4H510Zm0,6.1h2.4v18.6H510Z"/><path class="cls-1" d="M533.17,199.3h-2v-4h-2.1v-6.4h2.4V195h2v4h2v4h1.7v-4h2v-4h2v-6.1h2.4v6.4h-2v4h-2v4h-2v4.1h-2.4v-4.1h-2v-4Z"/><path class="cls-1" d="M556.27,203.3h-2.1V192.9h2.1v-2h2v-2h6.4v2h2v2h2v6.4h-12.1V203h2v2h5.7v-2h2v-2h2.4v2.4h-2v2h-2v2.1h-6.4v-2.1h-2v-2.1Zm10.1-6.4v-3.7h-2v-2h-5.7v2h-2v3.7Z"/><path class="cls-1" d="M610.47,180.7h2.4v26.6h-2.4Z"/><path class="cls-1" d="M629.57,188.8H632v2h1.7v-2h6.4v2h2v2h2v14.5h-2.4V193.1h-2v-2H634v2h-2v14.2h-2.4Z"/><path class="cls-1" d="M659.77,191.2h-4.1v-2.4h4.1v-6.1h2v-2h6.4v2.4h-6.1v5.7h6.1v2.4h-6.1v16.2h-2.4l.1-16.2Z"/><path class="cls-1" d="M681.87,203.3h-2.1V192.9h2.1v-2h2v-2h6.4v2h2v2h2v10.4h-2v2h-2v2.1h-6.4v-2.1h-2Zm2.4-.3v2H690v-2h2v-9.8h-2v-2h-5.7v2h-2V203Z"/><path class="cls-1" d="M707,188.8h2.4v2h1.7v-2h6.4v2.4h-6.1v2h-2v14.2H707V188.8Z"/><path class="cls-1" d="M730.07,188.8h2.4v2h1.7v-2h2.4v2h3.7v-2h2.4v2h2v16.5h-2.4V191.1h-1.7v2h-2v14.2h-2.4V191.1h-1.7v2h-2v14.2h-2.4V188.8Z"/><path class="cls-1" d="M755.17,198.9h2.1v-2h8.1v-5.7h-7.7v4h-2.4v-4.4h2.1v-2h8.4v2h2v14.1h2v2.4h-2.4v-2.1h-3.7v2.1h-6.4v-2.1h-2.1v-6.3Zm8.2,6.1v-2h2v-3.7h-7.7V205Z"/><path class="cls-1" d="M785.47,191.2h-4.1v-2.4h4.1v-6.1h2.4v6.1H794v2.4h-6.1V205H794v2.4h-6.4v-2.1h-2l-.1-14.1Z"/><path class="cls-1" d="M811.47,182.7h2.4v4.4h-2.4Zm0,6.1h2.4v18.6h-2.4Z"/><path class="cls-1" d="M832.67,203.3h-2.1V192.9h2.1v-2h2v-2h6.4v2h2v2h2v10.4h-2v2h-2v2.1h-6.4v-2.1h-2Zm2.3-.3v2h5.7v-2h2v-9.8h-2v-2H835v2h-2V203Z"/><path class="cls-1" d="M855.77,188.8h2.4v2h1.7v-2h6.4v2h2v2h2v14.5h-2.4V193.1h-2v-2h-5.7v2h-2v14.2h-2.4Z"/><path class="cls-1" d="M906,180.7h2.4v4h2v6.1h2v8.1h1.7v-8.1h2v-6.1h2v-4h2.4v26.6h-2.4V191.1h-1.7v8.1h-2v6.1H912v-6.1h-2v-8.1h-1.7v16.2h-2.4l.1-26.6Z"/><path class="cls-1" d="M933.17,203.3h-2.1V192.9h2.1v-2h2v-2h6.4v2h2v2h2v6.4h-12.1V203h2v2h5.7v-2h2v-2h2.4v2.4h-2v2h-2v2.1h-6.4v-2.1h-2v-2.1Zm10.1-6.4v-3.7h-2v-2h-5.7v2h-2v3.7Z"/><path class="cls-1" d="M958.27,203.3h-2.1V192.9h2.1v-2h2v-2h6.4v2h1.7v-8.1h2.4v24.6h-2.4v-2.1h-1.7v2.1h-6.4v-2.1h-2Zm2.4-.3v2h5.7v-2h2v-9.8h-2v-2h-5.7v2h-2V203Z"/><path class="cls-1" d="M987.37,182.7h2.4v4.4h-2.4Zm0,6.1h2.4v18.6h-2.4Z"/><path class="cls-1" d="M1006.47,198.9h2.1v-2h8.1v-5.7H1009v4h-2.4v-4.4h2.1v-2h8.4v2h2v14.1h2v2.4h-2.4v-2.1H1015v2.1h-6.4v-2.1h-2.1v-6.3Zm8.2,6.1v-2h2v-3.7H1009V205Z"/><path class="cls-1" d="M1056.77,180.7h2.4v24.2h12.1v2.4h-14.5Z"/><path class="cls-1" d="M1081.87,198.9h2.1v-2h8.1v-5.7h-7.7v4H1082v-4.4h2.1v-2h8.4v2h2v14.1h2v2.4h-2.4v-2.1h-3.7v2.1H1084v-2.1h-2.1v-6.3Zm8.1,6.1v-2h2v-3.7h-7.7V205Z"/><path class="cls-1" d="M1107,182.7h2.4v8.1h1.7v-2h6.4v2h2v2h2v10.4h-2v2h-2v2.1h-6.4v-2.1h-1.7v2.1H1107Zm4.5,20.3v2h5.7v-2h2v-9.8h-2v-2h-5.7v2h-2V203Z"/><path class="cls-1" d="M1134.17,203.3h-2.1V192.9h2.1v-2h2v-2h6.4v2h2v2h2v10.4h-2v2h-2v2.1h-6.4v-2.1h-2Zm2.4-.3v2h5.7v-2h2v-9.8h-2v-2h-5.7v2h-2V203Z"/><path class="cls-1" d="M1159.27,188.8h2.4v2h1.7v-2h6.4v2.4h-6.1v2h-2v14.2h-2.4V188.8Z"/><path class="cls-1" d="M1182.37,198.9h2.1v-2h8.1v-5.7h-7.7v4h-2.4v-4.4h2.1v-2h8.4v2h2v14.1h2v2.4h-2.4v-2.1h-3.7v2.1h-6.4v-2.1h-2.1v-6.3Zm8.1,6.1v-2h2v-3.7h-7.7V205Z"/><path class="cls-1" d="M1212.67,191.2h-4.1v-2.4h4.1v-6.1h2.4v6.1h6.1v2.4h-6.1V205h6.1v2.4h-6.4v-2.1h-2l-.1-14.1Z"/><path class="cls-1" d="M1234.67,203.3h-2.1V192.9h2.1v-2h2v-2h6.4v2h2v2h2v10.4h-2v2h-2v2.1h-6.4v-2.1h-2Zm2.4-.3v2h5.7v-2h2v-9.8h-2v-2h-5.7v2h-2V203Z"/><path class="cls-1" d="M1259.77,188.8h2.4v2h1.7v-2h6.4v2.4h-6.1v2h-2v14.2h-2.4V188.8Z"/><path class="cls-1" d="M1289,207v-3.7h-2v-4h-2v-6.1h-2.1v-4.4h2.4v4h2v6.1h2v4h1.7v-4h2v-6.1h2v-4h2.4v4.4h-2v6.1h-2v4h-2v4.1h-2v2H1283V207Z"/><path class="cls-1" d="M417.57,33.1V2.1h-14.8V33.3h-56.6v77.2h56.6v32.1h14.8V110.5H474V91.1h.2v-58Zm21.8,58.4a18.1,18.1,0,0,1-17.9-15.4h-20.6a18.1,18.1,0,1,1,0-5.4h20.6a18.1,18.1,0,1,1,17.9,20.8Z"/><path class="cls-1" d="M683.67,83.3V72.4H582.17c0-2.8-.2-3-.2-5.8h76.3c0-16.6.2-35.1.2-51.8H615c1.6-4.6,3-9,4.4-13.4-5.8-.5-10.9-.9-16.2-1.4-1.4,3.9-2.5,7.9-3.7,11.8-.5,2.1-1.4,3-3.9,3-6-.2-12.3,0-18.5,0h-9.7v87.8h18.3v19.6h-20.4v-15h-13.6v26.4h82.8V107.2h-13.9V122h-19.9V102.7h61.5c-.9,6.7-1.6,12.9-3,19.2-1.4,5.8-3.7,7.4-9.5,7.4h-12c1.2,4.9,2.1,9.7,3.2,14.3,4.9,0,9.7.2,14.3,0,11.1-.7,15.9-4.9,18.3-15.5a187.12,187.12,0,0,0,3-19.9c.5-5.3.7-12.9.9-18.7h-95V83.3Zm-39.8-29.6H603a4.3,4.3,0,0,1,0-8.6h40.9Zm-61.2-27.8h40.9a4.3,4.3,0,0,1,0,8.6h-40.9V25.9Z"/><path class="cls-1" d="M970.17,58l.8-.2c13-3.3,23.1-9,30.7-17.5a65.71,65.71,0,0,0,5-6.5c.6-.8,1.2-1.7,1.8-2.5h-32.6V52.4h-15.1V17.1h60V1.1H1037V17h60.3V50.9h-6.5c-1.3,0-2.7,0-4-.1h-.3c-1.3,0-1.8.4-2,1.7a2.35,2.35,0,0,1-.2.8c0,.1-.1.2-.1.3-2.5,8-7.6,12-15.2,12h-6.6c-6.9,0-14,0-21-.4-6.5-.3-9-3.1-9-10v-24h-18.5l8.5,4.8-.3.6c-8.5,16.8-22.7,27.8-44.5,34.6l-.6.2L970.17,58Zm77.3-22.2v12c0,2.7.9,3.4,3.6,3.5,1.9,0,3.8.1,5.7.1,2.4,0,4.8,0,7.2-.1,3,0,5-1.5,6.1-4.4.5-1.4,1-2.8,1.5-4.3l.9-2.6,9.7,4V31.2h-34.8v4.6Z"/><path class="cls-1" d="M1033.07,30.5h-21.8l10.2,5.7c-9.4,18.6-25.3,28.4-44.1,34.3-2.1-4.2-4.1-8-6.2-12,12-3.1,22.7-8.5,31.1-17.7,2.7-3,4.8-6.4,7.7-10.2h-34.7V51.7h-13.7v-34h60V1.7h14.8v16h60.3V50.2c-3.3,0-6.5.1-9.7,0-1.8-.1-2.8.6-3.1,2.3-.1.4-.2.7-.3,1-2.2,7.2-6.8,11.5-14.7,11.5-9.1,0-18.3.1-27.4-.4-6.3-.3-8.3-3-8.4-9.4V30.5Zm13.7,0c0,6-.1,11.6,0,17.2.1,3,1.2,4.1,4.3,4.2,4.3.1,8.7.1,13,0a6.78,6.78,0,0,0,6.7-4.8c.8-2.1,1.4-4.1,2.1-6.2l10,4.2V30.5Z"/><path class="cls-1" d="M958.77,130.5l3.4-.6c1.8-.3,3.7-.6,5.5-1,9.9-2.1,22.6-5.7,32.1-15.9,5-5.3,8.6-11.8,11.2-19.8h-40.7V78.7h14.5c4-.1,7.9-.1,11.9-.2l15.8-.3c1.6,0,2-.3,2.1-1.8.3-4.3.7-8.7,1.1-13.1l.6-6,16,.7L1031,77.4h29.7v44.5c0,4.1.7,4.8,4.9,4.8h11.1c5.3,0,7.5-1.7,8.7-6.9.3-1.2.5-2.5.7-3.7l.1-.9c.2-1.1.3-2.2.5-3.4l.3-2.2,15.5,5.3-.1.8c-.9,6.4-1.8,13.1-5.4,19a13.87,13.87,0,0,1-11.7,6.6c-6.3.2-11.5.3-16.3.3s-9.5-.1-13.9-.3q-10.5-.45-10.5-12V92.5h-16.5c-.4,1-.7,2-1.1,3.1-.9,2.5-1.7,4.9-2.6,7.3-7,17.6-20,29.5-39.9,36.2-4.3,1.4-8.7,2.6-13,3.7-2,.5-4,1.1-6,1.6l-.6.2-6.1-14.1Z"/><path class="cls-1" d="M1059.87,78v43.7c0,4.5,1,5.5,5.6,5.5h11.1c5.7,0,8.1-1.9,9.4-7.4a36.91,36.91,0,0,0,.8-4.6c.3-1.5.5-3.1.7-4.8,4.7,1.6,9.3,3.2,14.1,4.8-.9,6.5-1.8,13.1-5.3,19a12.73,12.73,0,0,1-11.2,6.2c-10.1.3-20.1.4-30.2,0-6.8-.3-9.8-4.3-9.9-11.3V91.6h-17.7c-1.3,3.7-2.5,7.3-3.9,10.8-7.3,18.4-21.2,29.6-39.5,35.8-6.2,2.1-12.6,3.5-18.9,5.3-1.9-4.4-3.6-8.4-5.4-12.6,2.7-.5,5.4-.9,8.1-1.5,12.2-2.5,23.6-6.7,32.4-16.1a51.9,51.9,0,0,0,11.6-20.9h-41V79.3c4.6,0,9.2.1,13.9,0,9.2-.1,18.5-.4,27.7-.5,1.8,0,2.6-.5,2.8-2.4.4-6.1,1-12.1,1.6-18.4l14.7.7-1.3,19.4,29.8-.1Z"/><path class="cls-1" d="M801.17,133.9l.8-.5c24.8-14.4,28.9-38.9,29.6-61h-16.9V58.2h16.9v-35h-12.9V9.3h71.4V22.9h-13.7v35H894V72h-17.6v71.3h-15.2V72.2h-14.5l-.2,2.9c-.1,2.5-.3,5.1-.5,7.6-1.5,16.8-5.3,29.6-12.1,40.2A74.24,74.24,0,0,1,813,143.8l-.5.3-11.3-10.2Zm59.8-76V23.2h-14.3V57.9Z"/><path class="cls-1" d="M875.67,142.8h-13.8V71.7h-15.8c-.2,3.7-.4,7.4-.7,11.2-1.2,14.1-4.2,27.7-12,39.9a71.63,71.63,0,0,1-20.7,20.7l-10.2-9.4c23.8-13.8,29.3-36.7,30-62.3h-17V59h16.9V22.7h-12.9V10.2h70V22.4h-13.7V58.8h17.6V71.6h-17.6l-.1,71.2ZM846,22.6V58.7h15.6V22.6Z"/><path class="cls-1" d="M767.67,124.7V84.8l-9,12.9-12.1-8.2.5-.6c14.4-17.6,23.2-39.1,26.6-65.7h-21.1V9.7h62.3V23.3h-20.1c-3.9,0-6.2,1.8-6.9,5.5l-.1.6c-1.2,5.6-2.5,11.2-3.8,16.6-.6,2.3-1.1,4.6-1.6,6.8-.1.5-.3,1-.4,1.7l-.1.2H810v70Zm28.1-14.1V68.8h-14.3v41.8Z"/><path class="cls-1" d="M809,124h-40.7V82.6l-9.9,14.2-10.9-7.4c15.9-19.4,23.7-42,26.8-66.8h-21.2V10.4H814V22.6h-19.4c-6.6,0-6.4,0-7.7,6.6-1.6,7.9-3.6,15.6-5.5,23.4-.2.8-.4,1.6-.8,2.8h28.3L809,124Zm-12.5-12.7V68.1h-15.6v43.2Z"/><polygon class="cls-1" points="1168.27 52.3 1168.27 17.8 1226.47 17.8 1226.47 1.5 1243.47 1.5 1243.47 17.7 1302.17 17.7 1302.17 51.9 1286.97 51.9 1286.97 31.1 1183.77 31.1 1183.77 52.3 1168.27 52.3"/><path class="cls-1" d="M1301.47,18.4V51.1h-13.8V30.4h-104.6V51.5h-14.2V18.4h58.3V2.1h15.6V18.4Z"/><path class="cls-1" d="M1165.47,138.5V125h61.7V112.8h-43.6V98.9h43.6V85.2l-45.6,2.1-2.1-14.6h17.4a13.39,13.39,0,0,0,11.7-6.4c1.8-2.7,3.4-5.4,5.1-8.2l1.9-3.1.2-.4h-26.1V41.4H1281v13h-22l31.4,26.7-11.6,10.3-2.8-2.7c-2.2-2.1-4.4-4.2-6.6-6.2a3.45,3.45,0,0,0-1.7-1c-6.7.6-13.4,1.3-20.1,2l-4.7.5V98.8H1287v14.1h-44.1V125h44.6v13.6l-122-.1Zm81-84c-4.3,0-8.6,0-13,.1-.2,0-.8.5-1.4,1.3-1.3,2-2.6,4.1-3.9,6.1-1.1,1.7-2.1,3.4-3.2,5.1-.8,1.2-1.6,2.4-2.6,3.7a5.5,5.5,0,0,1-.7.9l33.3-2.1-9.1-7,9.2-8.1Z"/><path class="cls-1" d="M1286.67,125.6h-44.6V112.1h44.1V99.4h-44.1V83.3c8.6-.9,17-1.8,25.5-2.5a3.47,3.47,0,0,1,2.3,1.2c3.1,2.8,6,5.7,9,8.5,3.2-2.8,6.6-5.8,10.5-9.3-10.7-9.1-21.3-18.1-32.2-27.4h23.2V42.2h-89.9V54h26.4a8.88,8.88,0,0,1-.6,1.5c-2.3,3.8-4.6,7.6-7,11.3-4.3,6.7-4.4,6.7-12.3,6.7h-16.6c.7,4.6,1.3,8.6,1.9,13.2l45.7-2.1V99.7h-43.7v12.5h43.6v13.6h-61.7v12.1h120.5V125.6Zm-66.2-53c1.6-2.3,2.9-4,4-5.8,2.4-3.7,4.7-7.5,7.1-11.2.4-.7,1.3-1.6,1.9-1.6,7.5-.1,15.1-.1,22.6-.1l.2.7c-3,2.7-6.1,5.3-9.2,8.1,3.1,2.4,6.1,4.7,9,7v.7c-11.6.7-23.3,1.4-35.6,2.2Z"/><rect class="cls-1" x="1291.47" y="124.9" width="13.6" height="13.6"/><path class="cls-1" d="M1292.17,125.6v12.2h12.2V125.6Z"/><ellipse class="cls-2" cx="53.35" cy="60.9" rx="26.7" ry="26.35"/><polygon class="cls-3" points="136.97 60.88 168.91 29.36 200.86 60.88 168.91 92.41 136.97 60.88"/><path class="cls-1" d="M112,40.61,95.59,24.44a56.51,56.51,0,0,0-79.19,0,54.76,54.76,0,0,0,0,78.16l.07.06,16.32,16.11,43.67,43.11,21.41-21.14-22.26-22L112,82.88l36.36,35.89-13,12.82-44.79,44.2.13.13,21.29,21,57.77-57,54.19,53.48V151.11l-32.78-32.35,16.39-16.17a54.76,54.76,0,0,0-.47-78.16,56.52,56.52,0,0,0-78.72,0L112,40.61M53.35,87.26a26.42,26.42,0,1,1,26.7-26.48v.06A26.59,26.59,0,0,1,53.35,87.26ZM168.9,92.42,137,60.91,168.9,29.4l31.93,31.51Z"/></g></g></svg>