<svg xmlns="http://www.w3.org/2000/svg" viewBox="0 0 504 504"><g id="レイヤー_2" data-name="レイヤー 2"><g id="レイヤー_1-2" data-name="レイヤー 1"><path d="M504,194V310c-.38,7-.93,13.91-1.09,20.87-.46,20.63-.75,41.3-5.24,61.55-11.26,50.76-40.8,85.31-90.79,101.47-22,7.1-44.73,8.08-67.53,8.87-9.78.34-19.57.82-29.35,1.24H194c-6.95-.38-13.9-.93-20.86-1.09-20.63-.46-41.3-.75-61.55-5.24-50.76-11.25-85.31-40.79-101.48-90.78C3,384.93,2,362.16,1.24,339.36.9,329.57.42,319.79,0,310V194c.38-7,.93-13.91,1.09-20.87.47-20.63.75-41.3,5.24-61.55,11.26-50.76,40.8-85.3,90.79-101.47,22-7.1,44.73-8.08,67.53-8.87C174.43.9,184.22.42,194,0H310c6.95.38,13.9.93,20.86,1.09,20.63.47,41.3.75,61.55,5.24,50.76,11.25,85.31,40.79,101.48,90.78,7.1,22,8.08,44.73,8.87,67.53C503.1,174.43,503.58,184.21,504,194ZM252,459.49v-1.23c26.31,0,52.64.35,78.94-.13a444.35,444.35,0,0,0,44.8-3C419.31,449.89,450,419.52,455,376a577.84,577.84,0,0,0,3.57-62.25c.31-50.3,0-100.61-.66-150.91a236.43,236.43,0,0,0-3.88-40.18c-6.66-35.62-26.92-60-62.32-70.13A142.33,142.33,0,0,0,358.86,47c-30.77-1.28-61.58-1.87-92.39-2-31-.18-62,.19-92.93.87-15.12.33-30.29,1.23-45.3,3C84.69,54.1,54,84.48,49,128.05A577.84,577.84,0,0,0,45.4,190.3c-.31,50.3,0,100.61.66,150.91a234.11,234.11,0,0,0,3.88,40.17c7,37.14,28.52,61.93,65.71,71,13.77,3.35,28.24,4.7,42.45,5.25C189.39,458.81,220.71,458.93,252,459.49Z"/><path d="M123.13,252C123.15,180.33,180.38,123.4,252,123c70.89-.35,129.29,58.32,129,129.47-.26,70.57-58.49,129-129.54,128.46C180.25,380.44,123.11,323.42,123.13,252Zm213.12.2c0-46.33-37.61-84.4-83.43-84.44-47,0-85,37.41-85.07,83.81,0,46.65,37.54,84.66,83.68,84.69C298.39,336.28,336.24,298.76,336.25,252.19Z"/><path d="M386.54,87.82c16.92,0,29.68,12.85,29.64,29.79a29.75,29.75,0,0,1-29.8,29.93c-16.22,0-30-13.81-29.95-30.08A29.83,29.83,0,0,1,386.54,87.82Z"/></g></g></svg>