<svg id="_イヤー_1" data-name=" イヤー 1" xmlns="http://www.w3.org/2000/svg" viewBox="0 0 343 292.8"><defs><style>.cls-1{fill:#f5864f;}.cls-2{fill:#2da7a7;}.cls-3{fill:#1c1c1c;}</style></defs><circle class="cls-1" cx="81.7" cy="81.7" r="40.9"/><rect class="cls-2" x="224.12" y="47.08" width="69.2" height="69.2" transform="translate(18.02 206.86) rotate(-45)"/><path class="cls-3" d="M171.5,50.21l-25.1-25.1A85.77,85.77,0,0,0,25.1,146.41l.1.1,25,25,66.9,66.9,32.8-32.8-34.1-34.1,55.7-55.7,55.7,55.7-19.9,19.9L138.7,260l.2.2,32.6,32.6,88.5-88.5,83,83v-65.6l-50.2-50.2,25.1-25.1A85.77,85.77,0,0,0,196.6,25.11l-25.1,25.1m-89.8,72.4a41,41,0,1,1,40.9-41A41,41,0,0,1,81.7,122.61Zm177,8-48.9-48.9,48.9-48.9,48.9,48.9Z"/></svg>